:FULLY-SPECIFIED
:FORCE-ALL-JOINTS-BE-3DOF
:DEGREES
469
root 10.7803 17.3225 29.7212 5.08284 2.42741 3.48421
lfemur -4.68268 2.84716 -28.7671
ltibia 15.4598 0 0
lfoot -14.0943 4.71943 0
ltoes 1.1288 0 0
rfemur -29.0006 4.45192 12.7504
rtibia 49.3623 0 0
rfoot -17.3369 -8.24093 0
rtoes -10.9256 0 0
lowerback -5.65011 -2.80129 -4.00901
upperback -0.894025 -3.511 1.23371
thorax 2.61947 -1.80091 3.19102
lowerneck -21.6547 -3.36792 -11.0351
upperneck 24.7322 -4.09892 10.8603
head 12.227 -1.47778 5.33382
lclavicle -1.47131e-14 1.08604e-14 0
lhumerus -20.7468 -17.0501 88.1862
lradius 26.7053 0 0
lwrist -0.0111237 0 0
lhand -12.5681 -24.5755 0
lfingers 7.12502 0 0
lthumb 13.5091 4.9589 0
rclavicle -1.47131e-14 1.08604e-14 0
rhumerus -47.4513 9.38312 -87.2106
rradius 35.0311 0 0
rwrist -15.1639 0 0
rhand -29.8185 -28.1959 0
rfingers 7.12502 0 0
rthumb -3.14215 -58.1514 0
470
root 10.7799 17.3143 29.8498 5.06958 2.53238 3.56303
lfemur -3.82479 2.79103 -28.7923
ltibia 14.8156 0 0
lfoot -14.1754 4.71167 0
ltoes 1.1964 0 0
rfemur -29.5797 4.85165 12.4864
rtibia 48.4388 0 0
rfoot -17.8439 -8.25229 0
rtoes -10.4266 0 0
lowerback -5.65919 -2.90237 -4.08104
upperback -0.857205 -3.64022 1.2262
thorax 2.67887 -1.86786 3.20958
lowerneck -21.6918 -3.32649 -10.987
upperneck 24.759 -4.05866 10.8723
head 12.2385 -1.45298 5.33863
lclavicle -1.30057e-14 1.13356e-14 0
lhumerus -20.4363 -17.3537 88.0854
lradius 27.0606 0 0
lwrist 0.25771 0 0
lhand -12.6533 -24.6465 0
lfingers 7.12502 0 0
lthumb 13.4269 4.89322 0
rclavicle -1.30057e-14 1.13356e-14 0
rhumerus -47.5819 9.30768 -87.1464
rradius 35.0725 0 0
rwrist -15.3116 0 0
rhand -29.7838 -27.987 0
rfingers 7.12502 0 0
rthumb -3.10863 -57.943 0
471
root 10.7794 17.3061 29.9784 5.05633 2.63735 3.64186
lfemur -2.96689 2.73491 -28.8174
ltibia 14.1715 0 0
lfoot -14.2564 4.7039 0
ltoes 1.264 0 0
rfemur -30.1588 5.25138 12.2223
rtibia 47.5153 0 0
rfoot -18.3509 -8.26366 0
rtoes -9.92756 0 0
lowerback -5.66828 -3.00344 -4.15308
upperback -0.820384 -3.76945 1.21868
thorax 2.73827 -1.9348 3.22814
lowerneck -21.729 -3.28506 -10.9389
upperneck 24.7857 -4.0184 10.8842
head 12.25 -1.42818 5.34344
lclavicle -1.12983e-14 1.18107e-14 0
lhumerus -20.1257 -17.6573 87.9846
lradius 27.4159 0 0
lwrist 0.526544 0 0
lhand -12.7386 -24.7175 0
lfingers 7.12502 0 0
lthumb 13.3447 4.82754 0
rclavicle -1.12983e-14 1.18107e-14 0
rhumerus -47.7125 9.23225 -87.0823
rradius 35.1139 0 0
rwrist -15.4593 0 0
rhand -29.7491 -27.7781 0
rfingers 7.12502 0 0
rthumb -3.07511 -57.7346 0
472
root 10.7789 17.2979 30.107 5.04307 2.74231 3.72068
lfemur -2.109 2.67879 -28.8425
ltibia 13.5273 0 0
lfoot -14.3375 4.69613 0
ltoes 1.3316 0 0
rfemur -30.7379 5.65111 11.9583
rtibia 46.5918 0 0
rfoot -18.8579 -8.27502 0
rtoes -9.42856 0 0
lowerback -5.67736 -3.10452 -4.22512
upperback -0.783564 -3.89867 1.21116
thorax 2.79767 -2.00175 3.2467
lowerneck -21.7661 -3.24364 -10.8908
upperneck 24.8125 -3.97814 10.8962
head 12.2615 -1.40339 5.34825
lclavicle -9.5909e-15 1.22859e-14 0
lhumerus -19.8151 -17.9609 87.8839
lradius 27.7712 0 0
lwrist 0.795378 0 0
lhand -12.8239 -24.7885 0
lfingers 7.12502 0 0
lthumb 13.2625 4.76186 0
rclavicle -9.5909e-15 1.22859e-14 0
rhumerus -47.8431 9.15681 -87.0181
rradius 35.1553 0 0
rwrist -15.607 0 0
rhand -29.7144 -27.5692 0
rfingers 7.12502 0 0
rthumb -3.04159 -57.5262 0
473
root 10.7785 17.2896 30.2355 5.02982 2.84728 3.79951
lfemur -1.2511 2.62266 -28.8677
ltibia 12.8832 0 0
lfoot -14.4185 4.68837 0
ltoes 1.3992 0 0
rfemur -31.3169 6.05085 11.6942
rtibia 45.6684 0 0
rfoot -19.3649 -8.28639 0
rtoes -8.92955 0 0
lowerback -5.68645 -3.20559 -4.29716
upperback -0.746744 -4.0279 1.20364
thorax 2.85708 -2.0687 3.26527
lowerneck -21.8033 -3.20221 -10.8426
upperneck 24.8393 -3.93789 10.9082
head 12.273 -1.37859 5.35305
lclavicle -7.8835e-15 1.2761e-14 0
lhumerus -19.5046 -18.2644 87.7831
lradius 28.1266 0 0
lwrist 1.06421 0 0
lhand -12.9091 -24.8596 0
lfingers 7.12502 0 0
lthumb 13.1804 4.69617 0
rclavicle -7.8835e-15 1.2761e-14 0
rhumerus -47.9738 9.08138 -86.954
rradius 35.1967 0 0
rwrist -15.7548 0 0
rhand -29.6796 -27.3604 0
rfingers 7.12502 0 0
rthumb -3.00808 -57.3178 0
474
root 10.778 17.2814 30.3641 5.01656 2.95224 3.87833
lfemur -0.393207 2.56654 -28.8928
ltibia 12.239 0 0
lfoot -14.4996 4.6806 0
ltoes 1.4668 0 0
rfemur -31.896 6.45058 11.4302
rtibia 44.7449 0 0
rfoot -19.8719 -8.29775 0
rtoes -8.43055 0 0
lowerback -5.69553 -3.30667 -4.3692
upperback -0.709923 -4.15712 1.19612
thorax 2.91648 -2.13565 3.28383
lowerneck -21.8404 -3.16079 -10.7945
upperneck 24.8661 -3.89763 10.9202
head 12.2845 -1.35379 5.35786
lclavicle -6.17611e-15 1.32362e-14 0
lhumerus -19.194 -18.568 87.6824
lradius 28.4819 0 0
lwrist 1.33305 0 0
lhand -12.9944 -24.9306 0
lfingers 7.12502 0 0
lthumb 13.0982 4.63049 0
rclavicle -6.17611e-15 1.32362e-14 0
rhumerus -48.1044 9.00594 -86.8898
rradius 35.2381 0 0
rwrist -15.9025 0 0
rhand -29.6449 -27.1515 0
rfingers 7.12502 0 0
rthumb -2.97456 -57.1094 0
475
root 10.7775 17.2732 30.4927 5.00331 3.05721 3.95716
lfemur 0.464688 2.51042 -28.9179
ltibia 11.5949 0 0
lfoot -14.5806 4.67283 0
ltoes 1.5344 0 0
rfemur -32.4751 6.85031 11.1661
rtibia 43.8214 0 0
rfoot -20.3789 -8.30912 0
rtoes -7.93155 0 0
lowerback -5.70462 -3.40774 -4.44124
upperback -0.673103 -4.28635 1.1886
thorax 2.97588 -2.20259 3.30239
lowerneck -21.8776 -3.11936 -10.7464
upperneck 24.8928 -3.85737 10.9321
head 12.296 -1.32899 5.36267
lclavicle -4.46871e-15 1.37113e-14 0
lhumerus -18.8834 -18.8716 87.5816
lradius 28.8372 0 0
lwrist 1.60188 0 0
lhand -13.0797 -25.0016 0
lfingers 7.12502 0 0
lthumb 13.016 4.56481 0
rclavicle -4.46871e-15 1.37113e-14 0
rhumerus -48.235 8.93051 -86.8257
rradius 35.2795 0 0
rwrist -16.0502 0 0
rhand -29.6102 -26.9426 0
rfingers 7.12502 0 0
rthumb -2.94104 -56.901 0
476
root 10.7771 17.265 30.6213 4.99005 3.16217 4.03598
lfemur 1.32258 2.45429 -28.9431
ltibia 10.9507 0 0
lfoot -14.6617 4.66507 0
ltoes 1.602 0 0
rfemur -33.0542 7.25004 10.902
rtibia 42.8979 0 0
rfoot -20.886 -8.32048 0
rtoes -7.43255 0 0
lowerback -5.7137 -3.50882 -4.51327
upperback -0.636283 -4.41557 1.18109
thorax 3.03528 -2.26954 3.32095
lowerneck -21.9147 -3.07793 -10.6983
upperneck 24.9196 -3.81711 10.9441
head 12.3075 -1.30419 5.36748
lclavicle -2.76132e-15 1.41864e-14 0
lhumerus -18.5729 -19.1752 87.4808
lradius 29.1925 0 0
lwrist 1.87071 0 0
lhand -13.1649 -25.0726 0
lfingers 7.12502 0 0
lthumb 12.9338 4.49913 0
rclavicle -2.76132e-15 1.41864e-14 0
rhumerus -48.3656 8.85507 -86.7615
rradius 35.3209 0 0
rwrist -16.1979 0 0
rhand -29.5755 -26.7337 0
rfingers 7.12502 0 0
rthumb -2.90752 -56.6926 0
